# xmcd
#
# Track frame offsets:
#	150
#	28650
#	47775
#	70650
#	101475
#	119400
#	144450
#	162450
#	181950
#
# Disc length: 2650 seconds
#
# Revision: 1
# Processed by: cddbd v1.4PL0 Copyright (c) Steve Scherf et al.
# Submitted via: dBpowerAMP V4.0
#
DISCID=7a0a5809
DTITLE=Ten Years After - Rock'n'Roll Music To The World
DYEAR=1972
DGENRE=Blues
TTITLE0=You Give Me Loving
TTITLE1=Convention Prevention
TTITLE2=Turn Off T.V Blues
TTITLE3=Standing At The Station
TTITLE4=You Can't Win Them All
TTITLE5=Religion
TTITLE6=Choo Choo Mama
TTITLE7=Tomorrow I'll Be Out Of Town
TTITLE8=Rock and Roll Music To THe World
EXTD=
EXTT0=
EXTT1=
EXTT2=
EXTT3=
EXTT4=
EXTT5=
EXTT6=
EXTT7=
EXTT8=
PLAYORDER=
